<?xml version="1.0" standalone="no"?><!DOCTYPE svg PUBLIC "-//W3C//DTD SVG 1.1//EN" "http://www.w3.org/Graphics/SVG/1.1/DTD/svg11.dtd"><svg t="1701660507621" class="icon" viewBox="0 0 1024 1024" version="1.1" xmlns="http://www.w3.org/2000/svg" p-id="11507" xmlns:xlink="http://www.w3.org/1999/xlink" width="200" height="200"><path d="M512.001 131.575c-210.103 0-380.426 170.323-380.426 380.426s170.323 380.424 380.426 380.424 380.424-170.321 380.424-380.424-170.321-380.426-380.424-380.426zM657.71 637.948c0 0.605-0.318 1.107-0.345 1.706-0.122 2.854-0.95 5.512-1.672 8.282-0.619 2.351-0.967 4.732-1.979 6.894-0.998 2.145-2.587 3.928-3.976 5.896-1.668 2.351-3.185 4.714-5.31 6.654-0.438 0.402-0.618 0.965-1.078 1.35-1.46 1.224-3.241 1.639-4.813 2.622-2.404 1.518-4.688 3.042-7.4 4.031-2.69 0.976-5.395 1.272-8.187 1.654-1.853 0.261-3.501 1.094-5.425 1.094-0.607 0-1.109-0.318-1.708-0.345-2.856-0.122-5.516-0.95-8.289-1.674-2.346-0.618-4.727-0.963-6.884-1.975-2.151-0.999-3.937-2.593-5.911-3.985-2.346-1.666-4.701-3.179-6.638-5.299-0.404-0.44-0.968-0.619-1.356-1.082L446.657 496.794V638.9c0 22.192-17.991 40.183-40.183 40.183S366.29 661.091 366.29 638.9V386.054c0-22.192 17.991-40.183 40.183-40.183 12.247 0 22.829 5.777 30.2 14.419 0.329 0.365 0.797 0.51 1.115 0.89l139.555 166.349V385.102c0-22.192 17.99-40.183 40.183-40.183 22.192 0 40.183 17.991 40.183 40.183v252.846z" fill="#2c2c2c" p-id="11508"></path></svg>